<mxfile host="app.diagrams.net" modified="2024-01-23T14:37:02.801Z" agent="Mozilla/5.0 (Macintosh; Intel Mac OS X 10_15_7) AppleWebKit/605.1.15 (KHTML, like Gecko) Version/17.2 Safari/605.1.15" version="22.1.22" etag="0XDbHfV8gLn--N0d0oo-" type="github">
  <diagram name="Page-1" id="FCy420J1CEuox0BH5VdS">
    <mxGraphModel>
      <root>
        <mxCell id="0" />
        <mxCell id="1" parent="0" />
      </root>
    </mxGraphModel>
  </diagram>
</mxfile>
